<svg xmlns="http://www.w3.org/2000/svg" xmlns:xlink="http://www.w3.org/1999/xlink" width="64" height="64" viewBox="0 0 64 64"><defs><style>.a{fill:none;}.b{clip-path:url(#a);}</style><clipPath id="a"><rect class="a" width="64" height="64"/></clipPath></defs><g class="b"><g transform="translate(-326 -62)"><path d="M383.364,81.154A3,3,0,0,0,381,80H345.213l-1.268-6.568A3,3,0,0,0,341,71h-9a3,3,0,0,0,0,6h6.523l5.032,26.068a3,3,0,0,0,2.894,2.432l29.5.5H376a3,3,0,0,0,2.909-2.272l5-20A2.993,2.993,0,0,0,383.364,81.154Zm-9.7,18.806-24.684-.418L346.371,86h30.786Z"/><circle cx="5" cy="5" r="5" transform="translate(343 108)"/><circle cx="5" cy="5" r="5" transform="translate(369 108)"/></g><rect class="a" width="64" height="64"/></g></svg>