<svg xmlns="http://www.w3.org/2000/svg" width="64" height="64" viewBox="0 0 64 64"><defs><style>.a{fill:none;}</style></defs><rect class="a" width="64" height="64"/><path d="M591.06,117.162l-.955-.3a50.91,50.91,0,0,1-12.839-6.54C568.587,104.176,564,96.284,564,87.5c0-7.9,4.264-14.227,10.862-16.128,5.758-1.659,11.865.445,16.334,5.417,5.286-5.172,11.636-7.177,17.2-5.256C614.317,73.583,618,79.7,618,87.5c0,19.892-24.937,28.952-26,29.328ZM578.8,76.822a8.261,8.261,0,0,0-2.276.315C572.5,78.3,570,82.268,570,87.5c0,14.585,16.728,21.733,20.941,23.3,4.21-1.735,21.059-9.543,21.059-23.3,0-5.241-2.082-9.09-5.57-10.3-4-1.382-9.005.974-13.071,6.15l-2.632,3.35L588.46,83.1C585.542,78.454,581.867,76.822,578.8,76.822Z" transform="translate(-559 -61.813)"/></svg>