<svg xmlns="http://www.w3.org/2000/svg" width="52.908" height="19.709" viewBox="0 0 52.908 19.709"><g transform="translate(29.302 0.01)"><path d="M328.073.723h-1.631c.187-.312.343-.623.343-.623h-1.371s-.6,1.008-.665,1.122a.274.274,0,0,1-.281.125h-.187L324,2.386h1.122a.928.928,0,0,0,.582-.343c.031-.052.094-.177.166-.281h1.964Z" transform="translate(-319.636 -0.1)"/><path d="M321.06,26.1l-.26,1.143h3.668l.28-1.143Z" transform="translate(-316.769 -23.399)"/><path d="M316.06,47.1l-.26,1.143h3.668l.281-1.143Z" transform="translate(-312.288 -42.217)"/><path d="M320.683,35.61s-1.049,3.907-1.164,4.395.1.738.769.738h1.423l.239-.935h-1.133L321.95,35.6Z" transform="translate(-315.592 -31.912)"/><path d="M351.277,2s-1.953,7.813-2.016,8.042a.461.461,0,0,0,.416.6h1.434l.177-.831h-.7l.8-3.148c.644-.01,2.161-.021,2.566-.01a.921.921,0,0,0,1.008-.634c.073-.291,1.081-4,1.081-4Zm1.029,1.049h2.14l-.177.727h-2.14Zm1.517,2.535h-2.161l.2-.769h2.151Z" transform="translate(-342.258 -1.803)"/><path d="M377.434,49.1c-.042.312-.083.727-.291.727h-.519V49.1h-1.081s-.145,2.764-.177,3.138.125.6.436.6h1.527l.208-.831-.9-.01V50.555h.81a.755.755,0,0,0,.655-.53c.125-.488.218-.925.218-.925Z" transform="translate(-365.662 -44.009)"/><path d="M408.326,3.347l.312-1.247h-4.364l-.312,1.247h.353l-1.5,5.818h-.208l-.312,1.143H405l-.156.623h1.3l.156-.623h.26l.312-1.143h-.291l1.434-5.818Zm-2.473,3.533H404.7l.312-1.247h1.153Zm-1.735,2.286.291-1.143h1.164l-.281,1.143Zm2.327-4.675H405.3l.291-1.143h1.143Z" transform="translate(-389.801 -1.892)"/><path d="M464.3,1.1h1.247v.727a.139.139,0,0,0,.145.1h.478l-.384,1.039h-1.07a.346.346,0,0,1-.384-.364C464.331,2.212,464.3,1.1,464.3,1.1Z" transform="translate(-445.36 -0.996)"/><path d="M486.23,1.1s-.291.436-.384.582a.542.542,0,0,1-.457.249h-.239L484.9,2.97h.977a.912.912,0,0,0,.81-.509c.322-.551.738-1.361.738-1.361Z" transform="translate(-463.819 -0.996)"/><path d="M449.346,24.243l.239-1.143h-4.343L445,24.243h1.579c-.062.208-.187.613-.332,1.039h-1.527l-.239,1.143h1.351q-.062.156-.125.281c-.332.655-.925,1.455-1.049,1.662s-.114.249-.322.249h-.374l-.364,1.039H445c.291,0,.706-.416,1.039-1.122.094-.2.218-.426.353-.665.042.27.1.727.135,1.184a.685.685,0,0,0,.655.707h.758l.384-1.143h-.551c-.218,0-.177-.312-.177-.312V27.09l-.758-.01c.135-.239.26-.457.353-.655h1.621l.239-1.143H447.6c.125-.384.249-.779.322-1.039Z" transform="translate(-426.81 -20.71)"/><path d="M292.733,104.178l.312-1.143h-3.751l.229-.935h-1.538l-.249.935H284.2l-.312,1.143h3.543l-.353,1.351h-3.522l-.353,1.143h6.078l-1.922,1.257c-.436-.416-.779-.738-.779-.738H284.4s.8.79,1.621,1.61l-1.288.842a1.172,1.172,0,0,1-.769.249H282.52l-.52,1.143h2.078s.468.083,1.787-.738c.239-.145.592-.374,1.008-.644.416.405.748.748.883.873a1.02,1.02,0,0,0,1,.405h2.192l.405-1.07s-1.184.031-1.6.021a.6.6,0,0,1-.561-.229c-.052-.042-.468-.426-.945-.883,1.818-1.184,3.875-2.535,3.875-2.535l.229-.707h-3.7l.332-1.351Z" transform="translate(-282 -91.502)"/><path d="M388.809,102.1s-1.112,1.766-1.205,1.891-.166.187-.291.187h-.353l-.26,1.039h.987a1.835,1.835,0,0,0,1.413-.935c.364-.623,1.236-2.182,1.236-2.182Z" transform="translate(-375.822 -91.502)"/><path d="M381.7,118.4l-1.475.073-1.922,7.273h1.527Z" transform="translate(-368.295 -106.109)"/><path d="M413.347,103.139h-.426c.145-.634.249-1.039.249-1.039h-1.413s-.1.416-.249,1.039h-4.5l-.312,1.247h4.509c-.519,2.14-1.216,5.039-1.257,5.205-.062.27-.135.509-.53.509H405.97l-.27,1.039h4.218s.935.135,1.309-1.132c.229-.779.9-3.574,1.392-5.621h.416Z" transform="translate(-392.848 -91.502)"/><path d="M410.288,129.1s-.675,3.075-.727,3.242-.062.291-.416.291h-1.455l-.291,1.039h2.473s.686.083.945-1.1.79-3.47.79-3.47Z" transform="translate(-394.371 -115.697)"/></g><g transform="translate(0)"><path d="M6.145,0H14.01a1.534,1.534,0,0,1,1.527,1.995L11.88,17.714a2.676,2.676,0,0,1-2.462,1.995H1.553A1.53,1.53,0,0,1,.026,17.714L3.693,1.995A2.654,2.654,0,0,1,6.145,0" transform="translate(0.029)" fill="#e50012"/><path d="M75.63,0h7.865a1.534,1.534,0,0,1,1.527,1.995l-3.657,15.72a2.664,2.664,0,0,1-2.452,1.995H71.038a1.524,1.524,0,0,1-1.517-1.995l3.657-15.72A2.664,2.664,0,0,1,75.63,0" transform="translate(-62.245)" fill="#004e9b"/><path d="M159.145,0H167a1.53,1.53,0,0,1,1.527,1.995l-3.657,15.72a2.664,2.664,0,0,1-2.452,1.995h-7.865a1.53,1.53,0,0,1-1.527-1.995l3.668-15.72A2.654,2.654,0,0,1,159.145,0" transform="translate(-137.075)" fill="#008189"/><path d="M189.768,109.323h.738l.166-.717h-.738m.291-1.247-.2.842a2.988,2.988,0,0,1,.416-.187,2.563,2.563,0,0,1,.374-.062l.135-.592h-.727Zm.291-1.216-.187.81a4.056,4.056,0,0,1,.416-.166,2.615,2.615,0,0,1,.384-.062l.135-.592h-.748Zm1.642,0-.738,3.169h.249l-.156.655h-.26l-.042.2H190.3l.052-.2H188.5l.145-.6h.187l.758-3.221.145-.644h.935l-.073.332a1.437,1.437,0,0,1,.468-.239c.229-.062,1.579-.083,1.579-.083l-.156.644h-.332Z" transform="translate(-168.912 -94.539)" fill="#fff" fill-rule="evenodd"/><path d="M228.8,105.5h.987l.01.364.166.094h.166l-.156.613h-.53c-.468.031-.644-.166-.634-.395" transform="translate(-205.025 -94.539)" fill="#fff" fill-rule="evenodd"/><path d="M218.471,119.152h-.945l.125-.54h1.081l.125-.5h-1.07l.145-.613H220.9l-.145.613h-1l-.125.5h1l-.125.54h-1.081l-.177.229h.436l.156.686.042.145.229.031h.135l-.156.675h-.332l-.239-.01-.249-.1-.2-.229-.145-.686-.447.675a.788.788,0,0,1-.7.374H217.1l.135-.592h.26l.187-.062.135-.125" transform="translate(-194.541 -105.292)" fill="#fff" fill-rule="evenodd"/><path d="M126.116,119.1h2.5l-.145.6h-1.008l-.125.509h1.018l-.145.623H127.2l-.2.831.353.1.509-.073-.166.675h-1.153l-.26-.031-.2-.135a.3.3,0,0,1-.083-.27l.27-1.1H125.7l.156-.634h.571l.125-.509h-.571" transform="translate(-112.637 -106.726)" fill="#fff" fill-rule="evenodd"/><path d="M130.235,105.743h1.029l-.145.623h-1.4l-.145.135-.166.083a.931.931,0,0,1-.457.125H128.5l.145-.6h.135l.229-.042.135-.2.229-.468H130.4" transform="translate(-115.146 -94.449)" fill="#fff" fill-rule="evenodd"/><path d="M150.921,106.871a1.458,1.458,0,0,1,.738-.343l.79-.01.083-.343h-1.444m1.195.945h-1.434l-.073.291h1.247a.4.4,0,0,1,.187,0Zm-1.953-1.621h.873l-.1.447a2.025,2.025,0,0,1,.457-.291,4.081,4.081,0,0,1,.623-.135l1.413-.01-.384,1.61a1.8,1.8,0,0,1-.2.54l-.229.218-.322.1c-.094.01-.239.01-.436.01h-1.361l-.3,1.268-.021.218.135.073.592-.062-.156.7h-.675c-.218,0-.374,0-.478-.01l-.291-.062-.166-.2a3.173,3.173,0,0,1,.062-.343Z" transform="translate(-133.785 -94.539)" fill="#fff" fill-rule="evenodd"/><path d="M168.184,130.5l-.052.384-.135.291a.589.589,0,0,1-.457.166l-.478.021.021.436.062.135.062.042.156-.01.457-.031-.156.644h-.53a1.718,1.718,0,0,1-.748-.083l-.114-.249-.073-1.7h.852l.01.353h.208l.145-.021.052-.094.062-.27" transform="translate(-148.929 -116.941)" fill="#fff" fill-rule="evenodd"/><path d="M37.653,48.3c-.031.145-.582,2.649-.582,2.649a1.88,1.88,0,0,1-.488,1.112.9.9,0,0,1-.582.2.532.532,0,0,1-.6-.519l-.01-.114.114-.686s.571-2.3.675-2.6l.01-.031a12.52,12.52,0,0,1-1.33-.01l-.031.166-.582,2.587-.052.218-.094.717a1.052,1.052,0,0,0,.125.53c.27.468,1.029.54,1.455.54a2.911,2.911,0,0,0,1.423-.332,2.126,2.126,0,0,0,.914-1.423l.062-.26s.592-2.39.7-2.691l.01-.031a7.4,7.4,0,0,1-1.132-.021" transform="translate(-30.554 -43.282)" fill="#fff"/><path d="M77.218,69.526c-.395,0-.53,0-1,.021l-.021-.042.125-.53.052-.239c.083-.374.166-.81.177-.945.01-.083.031-.281-.187-.281l-.3.094c-.052.2-.166.758-.218,1.018-.114.54-.125.592-.166.862l-.042.031c-.405,0-.551,0-1.008.021l-.031-.042c.083-.322.156-.634.229-.956a15.887,15.887,0,0,0,.3-1.631l.042-.031a10.725,10.725,0,0,0,1.06-.177l.042.052-.073.27.249-.145a1.514,1.514,0,0,1,.634-.145.531.531,0,0,1,.551.312c.094.218.031.5-.094,1.039l-.062.281c-.125.6-.145.717-.208,1.132" transform="translate(-66.846 -59.77)" fill="#fff"/><path d="M105.97,74.723h-.54c-.156,0-.291.01-.509.021l-.01-.021-.01-.021a2.7,2.7,0,0,1,.125-.384,2.56,2.56,0,0,0,.114-.395c.073-.3.114-.519.145-.7s.052-.332.073-.509l.021-.021.021-.021c.239-.031.384-.052.54-.083s.312-.052.561-.094v.021l.01.021c-.042.187-.094.374-.135.571s-.083.374-.135.561c-.083.395-.125.551-.145.655s-.021.156-.062.364l-.021.021" transform="translate(-93.998 -64.967)" fill="#fff"/><path d="M123.988,68.482a1.981,1.981,0,0,1-.239.644l-.291.187c-.031,0-.229,0-.229-.291a2.309,2.309,0,0,1,.062-.447c.1-.457.229-.842.54-.842.239,0,.26.281.156.748m1.029.042a1.207,1.207,0,0,0-.1-1.07,1.18,1.18,0,0,0-.945-.353,1.7,1.7,0,0,0-1.184.416,1.929,1.929,0,0,0-.53,1.029c-.083.364-.187,1.039.426,1.288a1.779,1.779,0,0,0,.644.1,1.688,1.688,0,0,0,1.268-.5,2.249,2.249,0,0,0,.426-.914" transform="translate(-109.491 -60.129)" fill="#fff"/><path d="M220.611,67.4c-.5.094-.623.114-1.091.177l-.042.031-.021.114a.642.642,0,0,0-.343-.291,1.3,1.3,0,0,0-1.132.416,1.937,1.937,0,0,0-.53,1.018c-.083.364-.187,1.039.426,1.278a1.186,1.186,0,0,0,.551.094.886.886,0,0,0,.519-.239l-.042.177.031.031c.447-.021.582-.021,1.06-.021l.042-.042c.073-.405.135-.8.312-1.59.083-.374.177-.748.27-1.112m-1.579,1.995-.384.187c-.031,0-.229,0-.229-.291a2.424,2.424,0,0,1,.062-.447c.1-.457.229-.831.54-.831.208,0,.3.2.27.53l-.052.218c-.031.145-.073.281-.1.426l-.1.208" transform="translate(-194.8 -60.397)" fill="#fff"/><path d="M152.908,69.616c-.395,0-.53,0-1,.021l-.021-.031c.042-.177.094-.353.125-.53l.052-.239c.083-.374.166-.81.187-.945.01-.083.031-.281-.2-.281l-.3.094c-.062.2-.166.758-.218,1.018-.114.54-.125.592-.166.862l-.031.031c-.405,0-.551,0-1.018.021l-.021-.042c.073-.322.156-.634.229-.956a15.887,15.887,0,0,0,.3-1.631l.042-.031a10.724,10.724,0,0,0,1.06-.177l.042.052-.073.281.249-.145a1.514,1.514,0,0,1,.634-.145.531.531,0,0,1,.551.312c.094.218.031.5-.094,1.039l-.062.281c-.125.6-.145.717-.218,1.132" transform="translate(-134.681 -59.86)" fill="#fff"/><path d="M184.474,48.21l-.332.01a9.641,9.641,0,0,1-1.34-.021l-.031.177-.3,1.423s-.738,3.013-.769,3.158a10.879,10.879,0,0,1,1.184.01c.031-.145.208-.987.208-.987l.156-.634.094-.094h.062a3.136,3.136,0,0,0,1.943-.426,2.088,2.088,0,0,0,.779-1.226,1.861,1.861,0,0,0,.052-.436.944.944,0,0,0-.156-.551c-.3-.395-.873-.395-1.548-.405m.426,1.475a1.041,1.041,0,0,1-.53.707,1.646,1.646,0,0,1-.758.125h-.177l.01-.073.322-1.413.01-.073.01-.052.125.01.686.062a.546.546,0,0,1,.3.707" transform="translate(-162.819 -43.192)" fill="#fff"/><path d="M110.622,65c.26-.177.3-.426.073-.561a.9.9,0,0,0-.873.094c-.26.187-.291.436-.073.561a.869.869,0,0,0,.873-.094" transform="translate(-98.214 -57.677)" fill="#fff"/><path d="M245.959,66.952l-.042-.052c-.488.094-.571.114-1.029.177l-.031.031v.021h0c-.332.769-.322.6-.592,1.216v-.073l-.062-1.309-.042-.052c-.509.094-.53.114-1,.177l-.042.031-.01.052h0c.052.3.042.239.1.717.031.229.062.468.083.7.052.384.073.582.135,1.164-.322.53-.395.727-.7,1.195h0l-.218.343-.073.073-.145.021h-.166L242,72l.613-.01a.752.752,0,0,0,.707-.405l.374-.665" transform="translate(-216.854 -59.949)" fill="#fff" fill-rule="evenodd"/></g></svg>