<svg xmlns="http://www.w3.org/2000/svg" xmlns:xlink="http://www.w3.org/1999/xlink" width="29.983" height="23.093" viewBox="0 0 29.983 23.093"><defs><linearGradient id="a" x1="-0.001" y1="0.5" x2="0.999" y2="0.5" gradientUnits="objectBoundingBox"><stop offset="0" stop-color="#04582f"/><stop offset="1" stop-color="#56a833"/></linearGradient><linearGradient id="b" x1="-0.001" y1="0.5" x2="0.999" y2="0.5" gradientUnits="objectBoundingBox"><stop offset="0" stop-color="#19264a"/><stop offset="1" stop-color="#085298"/></linearGradient><linearGradient id="c" x1="0.001" y1="0.5" x2="1" y2="0.5" gradientUnits="objectBoundingBox"><stop offset="0" stop-color="#53090e"/><stop offset="1" stop-color="#e61729"/></linearGradient></defs><path d="M29.983,18.43a4.664,4.664,0,0,1-4.662,4.662H0V4.662A4.664,4.664,0,0,1,4.662,0H29.983Z" fill="#fff"/><g transform="translate(20.102 1.55)"><path d="M167.623,24.958h1.925a1.341,1.341,0,0,0,.23-.024.866.866,0,0,0,.678-.86.878.878,0,0,0-.678-.86,1.342,1.342,0,0,0-.23-.024h-1.925ZM169.33,12.8A3.328,3.328,0,0,0,166,16.13v3.463h4.723c.109,0,.242.012.327.012,1.066.048,1.853.605,1.853,1.55a1.574,1.574,0,0,1-1.514,1.526v.036c1.078.073,1.9.666,1.9,1.611,0,1.017-.908,1.671-2.119,1.671H166v6.793h4.892a3.328,3.328,0,0,0,3.33-3.33V12.8Zm.908,8.6a.792.792,0,0,0-.678-.8c-.036,0-.121-.012-.194-.012h-1.744v1.623h1.744c.061,0,.157-.012.194-.012A.792.792,0,0,0,170.238,21.4Z" transform="translate(-166 -12.8)" fill="url(#a)"/></g><path d="M17.13,12.8a3.328,3.328,0,0,0-3.33,3.33v8.222a6.714,6.714,0,0,0,2.882.751,1.613,1.613,0,0,0,1.792-1.647V19.593h2.858v3.863c0,1.514-.932,2.725-4.105,2.725a14.5,14.5,0,0,1-3.427-.412v7.023h4.892a3.328,3.328,0,0,0,3.33-3.33V12.8Z" transform="translate(-12.129 -11.25)" fill="url(#b)"/><path d="M93.142,12.8a3.328,3.328,0,0,0-3.33,3.33v4.359c.848-.727,2.3-1.175,4.674-1.066a15.155,15.155,0,0,1,2.6.4v1.4a6.59,6.59,0,0,0-2.519-.739c-1.8-.133-2.882.739-2.882,2.3s1.078,2.434,2.882,2.3a6.321,6.321,0,0,0,2.519-.739v1.4a15.415,15.415,0,0,1-2.616.4c-2.373.109-3.827-.339-4.674-1.066V32.78h4.892a3.328,3.328,0,0,0,3.33-3.33V12.8Z" transform="translate(-78.926 -11.25)" fill="url(#c)"/></svg>