<svg xmlns="http://www.w3.org/2000/svg" width="27.021" height="19.8" viewBox="0 0 27.021 19.8"><path d="M28.22,19.227A1.791,1.791,0,0,1,26.408,21H3.313A1.791,1.791,0,0,1,1.5,19.227V3.273A1.791,1.791,0,0,1,3.313,1.5H26.408A1.791,1.791,0,0,1,28.22,3.273V19.227Z" transform="translate(-1.35 -1.35)" fill="#fff"/><path d="M.31,1.923V17.877A1.633,1.633,0,0,0,1.963,19.49H25.058a1.633,1.633,0,0,0,1.653-1.612V1.923A1.633,1.633,0,0,0,25.058.31H1.963A1.627,1.627,0,0,0,.31,1.923M1.963,19.8A1.939,1.939,0,0,1,0,17.877V1.923A1.945,1.945,0,0,1,1.963,0H25.058a1.945,1.945,0,0,1,1.963,1.923V17.877A1.945,1.945,0,0,1,25.058,19.8Z" fill="#004a98"/><g transform="translate(2.143 11.087)"><path d="M22.431,116.724c0,.371.27.421.511.421a1.349,1.349,0,0,0,1.392-1.512,1.456,1.456,0,0,0-1.522-1.562,2.931,2.931,0,0,0-.381.02Zm-.481-2.283c0-.441-.23-.411-.451-.411v-.13c.19.01.381.01.571.01s.481-.01.841-.01a1.768,1.768,0,0,1,1.943,1.7c0,.481-.28,1.693-2,1.693-.25,0-.481-.01-.7-.01s-.431,0-.651.01v-.13c.29-.03.431-.04.451-.371Z" transform="translate(-21.49 -113.58)"/><path d="M57.231,113.971a.235.235,0,1,1,0-.471.235.235,0,0,1,.24.23.244.244,0,0,1-.24.24m-.521,2.844h.09c.14,0,.23,0,.23-.16v-1.322c0-.21-.07-.24-.25-.341v-.08c.23-.07.5-.16.521-.17a.149.149,0,0,1,.09-.02c.02,0,.03.03.03.07v1.863c0,.16.11.16.24.16h.08v.13c-.17,0-.341-.01-.511-.01s-.351,0-.531.01v-.13Z" transform="translate(-53.165 -113.22)"/><path d="M69.01,126.341c0-.18-.05-.23-.28-.32v-.09c.21-.07.411-.13.641-.23.01,0,.03.01.03.05v.32a1.433,1.433,0,0,1,.841-.361c.411,0,.561.3.561.681v1.242c0,.16.11.16.24.16h.09v.13c-.17,0-.341-.01-.511-.01s-.351,0-.521.01v-.13h.09c.14,0,.23,0,.23-.16v-1.262c0-.28-.17-.411-.451-.411a1.337,1.337,0,0,0-.561.23v1.442c0,.16.11.16.24.16h.08v.13c-.17,0-.341-.01-.511-.01s-.351,0-.521.01v-.13h.09c.14,0,.23,0,.23-.16v-1.292Z" transform="translate(-63.963 -124.198)"/><path d="M94.052,126.421c.12,0,.14-.06.14-.12a.413.413,0,0,0-.421-.451c-.3,0-.5.22-.561.571Zm-.861.15a1.179,1.179,0,0,0,0,.28.818.818,0,0,0,.711.841.97.97,0,0,0,.661-.32l.07.07a1.127,1.127,0,0,1-.9.551.982.982,0,0,1-.931-1.062c0-.951.641-1.232.981-1.232a.772.772,0,0,1,.821.761v.09l-.04.03H93.191Z" transform="translate(-85.649 -124.198)"/><path d="M111.81,127.793h.13c.14,0,.23,0,.23-.16v-1.362c0-.15-.18-.18-.25-.22v-.07c.351-.15.551-.28.591-.28s.04.01.04.06v.441h.01c.12-.19.33-.5.621-.5a.268.268,0,0,1,.28.26.238.238,0,0,1-.23.25c-.15,0-.15-.12-.32-.12a.407.407,0,0,0-.351.4v1.142c0,.16.1.16.23.16h.27v.13c-.27-.01-.471-.01-.681-.01s-.4,0-.581.01v-.13Z" transform="translate(-102.746 -124.198)"/><path d="M129.7,127.242a.638.638,0,0,0,.611.591.341.341,0,0,0,.391-.341c0-.571-1.062-.391-1.062-1.172a.668.668,0,0,1,.751-.621,1.212,1.212,0,0,1,.551.14l.03.491h-.11a.5.5,0,0,0-.531-.481.344.344,0,0,0-.381.32c0,.571,1.132.391,1.132,1.162,0,.32-.26.661-.841.661a1.257,1.257,0,0,1-.591-.17l-.05-.561Z" transform="translate(-118.764 -124.198)"/><path d="M161.225,114.151h-.12a.928.928,0,0,0-1.042-.8,1.384,1.384,0,0,0-1.372,1.542,1.591,1.591,0,0,0,1.452,1.693,1,1,0,0,0,.981-.841l.11.03-.11.711a2.637,2.637,0,0,1-1.072.26,1.725,1.725,0,0,1-1.853-1.833,1.786,1.786,0,0,1,1.843-1.713,3.621,3.621,0,0,1,1.152.26Z" transform="translate(-144.499 -112.95)"/><path d="M190.11,114.385h.09c.14,0,.23,0,.23-.16v-2.7c0-.32-.07-.33-.26-.381v-.08a2.788,2.788,0,0,0,.5-.21.31.31,0,0,1,.11-.05c.03,0,.04.03.04.07v3.355c0,.16.11.16.24.16h.08v.13c-.16,0-.33-.01-.511-.01s-.351,0-.531.01v-.13Z" transform="translate(-173.204 -110.79)"/><path d="M202.673,128.283c0,.09.05.09.14.09H203v.1a4.835,4.835,0,0,0-.7.15l-.02-.01v-.391a1.294,1.294,0,0,1-.861.411.524.524,0,0,1-.531-.581v-1.242c0-.13-.02-.25-.29-.27v-.09c.17,0,.561-.03.631-.03.05,0,.05.03.05.14v1.252c0,.15,0,.561.421.561a1.139,1.139,0,0,0,.591-.3v-1.312c0-.1-.23-.15-.411-.2v-.09c.441-.03.711-.07.761-.07s.04.03.04.09v1.793Z" transform="translate(-182.653 -124.828)"/><path d="M225.151,113.865a.526.526,0,0,0,.5.5c.521,0,.741-.511.741-.941a.931.931,0,0,0-.781-.961.754.754,0,0,0-.461.23Zm0-1.322a1.259,1.259,0,0,1,.721-.351.946.946,0,0,1,.9,1.022,1.226,1.226,0,0,1-1.162,1.272,1.422,1.422,0,0,1-.671-.17l-.15.11-.1-.05a6.24,6.24,0,0,0,.07-.861v-2.093c0-.32-.07-.33-.26-.381v-.08a2.788,2.788,0,0,0,.5-.21.31.31,0,0,1,.11-.05c.03,0,.04.03.04.07Z" transform="translate(-204.159 -110.7)"/><path d="M21.41,160.263h.04c.09,0,.2-.01.2-.15V158.73c0-.14-.1-.15-.2-.15h-.04v-.08c.1,0,.26.01.391.01s.29-.01.411-.01v.08h-.04c-.09,0-.2.01-.2.15v1.382c0,.14.1.15.2.15h.04v.08c-.13,0-.29-.01-.421-.01s-.29.01-.391.01v-.08Z" transform="translate(-21.4 -153.713)"/><path d="M22.211,160.233v-.06h-.03c-.09,0-.21-.02-.21-.16V158.63c0-.15.11-.16.21-.16h.03v-.06c-.12,0-.28.01-.4.01s-.28-.01-.381-.01v.06h.03c.09,0,.21.02.21.16v1.382c0,.15-.11.16-.21.16h-.03v.06c.1,0,.25-.01.381-.01s.27.01.4.01m.01.03c-.13,0-.29-.01-.421-.01s-.28.01-.391.01H21.4v-.1h.05c.1,0,.18-.01.18-.14V158.64c0-.13-.09-.14-.18-.14H21.4v-.1h.01c.1,0,.26.01.391.01s.29-.01.411-.01h.01v.1h-.05c-.1,0-.18.01-.18.14v1.382c0,.13.09.14.18.14h.05v.1Z" transform="translate(-21.4 -153.623)"/><path d="M32.313,159.732h0l.01-1c0-.22-.15-.25-.23-.25h-.06v-.08c.12,0,.25.01.371.01s.22-.01.32-.01v.08h-.04c-.11,0-.24.02-.24.341v1.2a1.186,1.186,0,0,0,.02.27h-.1L31,158.771v1.092c0,.23.04.31.25.31h.05v.08c-.11,0-.23-.01-.341-.01s-.24.01-.361.01v-.08h.04c.18,0,.24-.12.24-.331V158.73a.237.237,0,0,0-.24-.24h-.03v-.08c.1,0,.2.01.3.01.08,0,.16-.01.24-.01Z" transform="translate(-29.679 -153.623)"/><path d="M32.223,159.722Zm0,.01Zm.06.541h.09a2.179,2.179,0,0,1-.01-.26v-1.2c0-.32.13-.351.25-.351h.03v-.06c-.1,0-.21.01-.31.01-.12,0-.24-.01-.361-.01v.06h.05a.233.233,0,0,1,.24.26v1l-.01.01-.01.01-1.192-1.332c-.08,0-.15.01-.24.01s-.2-.01-.29-.01v.06h.02a.247.247,0,0,1,.25.25v1.112c0,.21-.06.351-.25.351h-.03v.06c.11,0,.23-.01.351-.01s.22.01.331.01v-.06h-.03c-.21,0-.26-.09-.26-.32v-1.122Zm.1.03h-.11l-1.342-1.492v1.052c0,.23.04.29.24.3h.06v.1h-.01c-.11,0-.23-.01-.341-.01s-.24.01-.361.01h-.01v-.1h.04c.17,0,.22-.11.23-.32V158.73a.233.233,0,0,0-.23-.23H30.5v-.1h.01c.1,0,.2.01.3.01.08,0,.16-.01.24-.01l1.162,1.312v-.971c0-.21-.14-.24-.22-.24h-.07v-.1h.01c.12,0,.25.01.371.01s.22-.01.32-.01h.03v.1H32.6c-.11,0-.22.01-.22.32v1.2a1.1,1.1,0,0,0,.02.26v.01h-.02Z" transform="translate(-29.589 -153.623)"/><path d="M52.831,157.9c-.2,0-.21.05-.25.24H52.5c.01-.07.02-.15.03-.22a1.637,1.637,0,0,0,.02-.22h.06c.02.08.09.08.16.08h1.362c.07,0,.14,0,.14-.08l.06.01-.03.21a1.479,1.479,0,0,0-.01.21l-.08.03c-.01-.1-.02-.25-.2-.25h-.431v1.412c0,.2.09.23.22.23h.05v.08c-.1,0-.29-.01-.431-.01-.16,0-.341.01-.451.01v-.08h.05c.15,0,.22-.01.22-.22V157.92h-.411Z" transform="translate(-49.385 -152.993)"/><path d="M53.962,159.453c-.1,0-.29-.01-.431-.01-.16,0-.341.01-.451.01h-.01v-.1h.06c.15,0,.2-.01.21-.21v-1.4H52.92v-.02h.441v1.422c0,.21-.09.23-.23.23h-.04v.06c.1,0,.28-.01.441-.01.14,0,.31.01.421.01v-.06h-.04c-.13,0-.23-.03-.23-.24V157.71h.441c.18,0,.2.15.21.25l.06-.02a1.479,1.479,0,0,1,.01-.21c.01-.07.02-.14.03-.2l-.04-.01c-.01.08-.09.08-.15.08H52.86c-.06,0-.13,0-.15-.08h-.04a1.494,1.494,0,0,1-.02.21l-.03.21h.06c.03-.18.06-.24.25-.24v.02c-.2,0-.19.04-.23.23v.01h-.1v-.01c.01-.07.02-.15.03-.22a1.639,1.639,0,0,0,.02-.22v-.01h.06v.01c.02.07.07.07.13.07h1.372c.07,0,.13,0,.13-.07v-.01h.01l.07.01v.01l-.03.21v.22h-.01l-.09.03v-.02c-.01-.1-.02-.24-.18-.24h-.421v1.392c0,.2.08.21.21.22h.06v.1h0Z" transform="translate(-49.475 -152.813)"/><path d="M71.8,160.263h.04c.09,0,.2-.01.2-.15V158.73c0-.14-.1-.15-.2-.15H71.8v-.08c.16,0,.441.01.661.01s.5-.01.681-.01c0,.11,0,.29.01.4l-.08.02c-.01-.17-.04-.31-.32-.31h-.371v.691h.31c.16,0,.19-.09.21-.23h.08c-.01.1-.01.21-.01.31s0,.2.01.3l-.08.02c-.02-.16-.02-.26-.21-.26h-.32v.621c0,.17.15.17.32.17.32,0,.461-.02.541-.32l.07.02c-.03.14-.07.28-.09.421-.17,0-.471-.01-.711-.01s-.551.01-.7.01Z" transform="translate(-66.752 -153.713)"/><path d="M73.112,160.233a2.878,2.878,0,0,1,.09-.4l-.05-.01c-.08.3-.23.32-.541.32-.17,0-.33,0-.33-.18v-.631h.33c.18,0,.2.11.22.26l.06-.01c-.01-.1-.01-.2-.01-.29s0-.2.01-.3h-.06c-.01.14-.06.23-.22.23h-.33V158.5h.381c.27,0,.32.14.331.31l.06-.02c0-.07-.01-.17-.01-.26v-.13c-.18,0-.451.01-.661.01s-.481-.01-.651-.01v.06h.03c.09,0,.21.02.21.16V160c0,.15-.11.16-.21.16h-.03v.06c.15,0,.461-.01.691-.01s.521.02.691.02m.01.03c-.17,0-.471-.01-.711-.01s-.551.01-.7.01H71.7v-.1h.05c.1,0,.18-.01.18-.14V158.64c0-.13-.09-.14-.18-.14H71.7v-.1h.01c.16,0,.441.01.661.01s.5-.01.681-.01h.01v.15a2.351,2.351,0,0,0,.01.27v.01h-.01l-.09.02v-.01c-.02-.17-.04-.3-.31-.3H72.3v.671h.3c.15,0,.18-.08.2-.22v-.01h.1v.01c-.01.1-.01.21-.01.31s0,.2.01.3v.01h-.01l-.09.02v-.01c-.02-.16-.02-.25-.19-.25H72.3v.6c0,.16.14.16.31.16.32,0,.451-.02.531-.31v-.01h.01l.08.02v.01c-.03.14-.07.28-.09.421Z" transform="translate(-66.662 -153.623)"/><path d="M88.581,159.291h.13c.26,0,.411-.1.411-.411a.368.368,0,0,0-.391-.391c-.08,0-.11.01-.15.01Zm-.341-.611c0-.19-.11-.2-.19-.2H88v-.08c.08,0,.25.01.411.01s.29-.01.431-.01c.33,0,.631.09.631.471a.512.512,0,0,1-.371.471l.451.681a.308.308,0,0,0,.26.16v.08c-.09,0-.17-.01-.26-.01s-.17.01-.25.01a7.435,7.435,0,0,1-.551-.861h-.17v.571c0,.2.09.21.22.21h.05v.08c-.15,0-.3-.01-.451-.01-.13,0-.25.01-.381.01v-.08h.05c.1,0,.19-.04.19-.14V158.68Z" transform="translate(-81.33 -153.623)"/><path d="M88.621,159.281c.26,0,.391-.09.4-.4a.357.357,0,0,0-.381-.381c-.07,0-.1.01-.14.01v.771Zm-.13.03h-.01V158.5h.01c.04,0,.07-.01.15-.01a.378.378,0,0,1,.4.4c0,.32-.15.421-.421.421Zm0,.07h.18v.01a8.839,8.839,0,0,0,.541.851c.08,0,.17-.01.25-.01s.17.01.25.01v-.06a.305.305,0,0,1-.25-.16L89,159.331l.01-.01a.478.478,0,0,0,.361-.451c0-.371-.29-.451-.621-.451-.14,0-.27.01-.431.01s-.31-.01-.4-.01v.06h.04c.08,0,.2.01.2.21v1.342c0,.11-.1.15-.2.15h-.04v.06c.13,0,.25-.01.371-.01.15,0,.3.01.441.01v-.06h-.04c-.12,0-.23-.02-.23-.22v-.581Zm1.232.881c-.09,0-.17-.01-.26-.01s-.16.01-.26.01a8.253,8.253,0,0,1-.551-.851h-.16v.551c0,.2.08.2.2.2h.06v.1h-.01c-.15,0-.3-.01-.451-.01-.13,0-.25.01-.381.01H87.9v-.1h.06c.09,0,.18-.04.18-.13V158.69c0-.19-.09-.19-.18-.19H87.9v-.1h.01c.09,0,.25.01.411.01s.28-.01.431-.01c.33,0,.641.09.641.481a.5.5,0,0,1-.361.471l.441.661a.265.265,0,0,0,.25.15h.01v.1h-.01Z" transform="translate(-81.24 -153.623)"/><path d="M108.523,159.732h0v-1c0-.22-.15-.25-.23-.25h-.06v-.08c.12,0,.25.01.371.01s.22-.01.331-.01v.08h-.04c-.11,0-.24.02-.24.341v1.2a1.187,1.187,0,0,0,.02.27h-.1l-1.362-1.522v1.092c0,.23.04.31.25.31h.04v.08c-.11,0-.23-.01-.341-.01s-.24.01-.361.01v-.08h.04c.18,0,.24-.12.24-.331V158.73a.237.237,0,0,0-.24-.24h-.03v-.08c.1,0,.2.01.3.01.08,0,.16-.01.23-.01Z" transform="translate(-98.247 -153.623)"/><path d="M108.513,159.722Zm.01.01Zm.05.541h.09a2.179,2.179,0,0,1-.01-.26v-1.2c0-.32.13-.351.25-.351h.03v-.06c-.1,0-.21.01-.31.01-.12,0-.24-.01-.361-.01v.06h.05a.233.233,0,0,1,.24.26v1.012l-.01.01-1.182-1.332c-.08,0-.16.01-.24.01-.1,0-.2-.01-.29-.01v.06h.02a.247.247,0,0,1,.25.25v1.112c0,.21-.06.351-.25.351h-.03v.06c.11,0,.23-.01.351-.01s.22.01.331.01v-.06h-.03c-.21,0-.26-.09-.26-.32v-1.122Zm.1.03h-.11l-1.342-1.5v1.062c0,.23.04.3.24.3h.06v.1h-.01c-.11,0-.23-.01-.341-.01s-.24.01-.361.01h-.01v-.1h.05c.17,0,.22-.11.23-.32V158.73a.233.233,0,0,0-.23-.23h-.05v-.1h.01c.1,0,.2.01.3.01.08,0,.15-.01.24-.01l1.162,1.312v-.971c0-.21-.14-.24-.22-.24h-.07v-.1h.01c.12,0,.25.01.371.01s.22-.01.32-.01h.01v.1h-.05c-.11,0-.22.01-.22.32v1.2a1.231,1.231,0,0,0,.02.27v.01Z" transform="translate(-98.247 -153.623)"/><path d="M128.821,158.161h0l-.25.751h.491Zm-.381,1.172a.873.873,0,0,0-.06.21c0,.08.11.09.2.09h.03v.08c-.11-.01-.21-.01-.32-.01a2.812,2.812,0,0,0-.29.01v-.08h.02a.243.243,0,0,0,.23-.17l.421-1.212c.03-.1.08-.23.1-.331a1.852,1.852,0,0,0,.24-.11c.01,0,.01-.01.02-.01s.01,0,.02.01a.145.145,0,0,1,.02.07l.491,1.382a2.159,2.159,0,0,0,.1.27.18.18,0,0,0,.18.11h.02v.08c-.12-.01-.24-.01-.361-.01s-.26,0-.4.01v-.08h.03c.06,0,.16-.01.16-.08a.759.759,0,0,0-.05-.19l-.1-.31h-.6Z" transform="translate(-117.324 -153.083)"/><path d="M128.9,158.161Zm-.22.731h.461l-.23-.711Zm-.03.03.25-.771h.02v.01h0v-.01h.01l.25.771Zm.541.771c.13,0,.26-.01.391-.01s.24.01.351.01v-.06h0a.188.188,0,0,1-.19-.11c-.03-.08-.07-.18-.1-.27l-.491-1.382a.142.142,0,0,1-.02-.06h-.02a1.077,1.077,0,0,1-.24.11,2.077,2.077,0,0,1-.1.331l-.421,1.212a.255.255,0,0,1-.24.18h0v.06c.09,0,.18-.01.27-.01s.21.01.31.01v-.06h-.02c-.09,0-.21-.01-.21-.1a.872.872,0,0,1,.06-.21h0l.09-.28h.621l.11.31a.758.758,0,0,1,.05.19c0,.08-.12.09-.18.09h-.02Zm.751.03c-.12-.01-.24-.01-.361-.01s-.26.01-.4.01h-.01v-.1h.04c.06,0,.15-.01.15-.06a.881.881,0,0,0-.05-.19l-.1-.3h-.581l-.08.27a.974.974,0,0,0-.06.2c0,.06.1.08.19.08h.04v.1h-.01c-.11-.01-.21-.01-.32-.01-.09,0-.19.01-.28.01h-.01v-.1h.03a.234.234,0,0,0,.22-.16l.421-1.212c.03-.1.08-.23.1-.331a1.855,1.855,0,0,0,.24-.11c.01,0,.01-.01.03-.01s.02,0,.03.02a.186.186,0,0,1,.02.07l.491,1.382a2.153,2.153,0,0,0,.1.27.155.155,0,0,0,.16.1h.03v.1Z" transform="translate(-117.414 -153.083)"/><path d="M144.631,157.9c-.2,0-.21.05-.25.24h-.08c.01-.07.02-.15.03-.22a1.636,1.636,0,0,0,.02-.22h.06c.02.08.09.08.16.08h1.362c.07,0,.14,0,.14-.08l.06.01-.03.21a1.48,1.48,0,0,0-.01.21l-.08.03c0-.1-.02-.25-.2-.25h-.431v1.412c0,.2.09.23.22.23h.05v.08c-.1,0-.29-.01-.431-.01-.16,0-.341.01-.451.01v-.08h.05c.15,0,.22-.01.22-.22V157.92h-.411Z" transform="translate(-131.991 -152.993)"/><path d="M145.762,159.453c-.1,0-.29-.01-.431-.01-.16,0-.34.01-.451.01h-.01v-.1h.06c.15,0,.2-.01.21-.21v-1.4h-.421v-.02h.441v1.422c0,.21-.09.23-.23.23h-.04v.06c.1,0,.28-.01.441-.01.14,0,.311.01.421.01v-.06h-.04c-.13,0-.23-.03-.23-.24V157.71h.441c.18,0,.2.15.21.25l.06-.02a1.48,1.48,0,0,1,.01-.21c.01-.07.02-.14.03-.2l-.04-.01c-.01.08-.09.08-.15.08H144.67c-.06,0-.13,0-.15-.08h-.06a1.5,1.5,0,0,1-.02.21l-.03.21h.06c.03-.18.06-.24.26-.24v.02c-.2,0-.19.04-.23.23v.01h-.1v-.01c.01-.07.02-.15.03-.22a1.639,1.639,0,0,0,.02-.22v-.01h.08v.01c.02.07.07.07.13.07h1.372c.07,0,.13,0,.13-.07v-.01h.01l.08.01v.01l-.03.21a1.48,1.48,0,0,0-.01.21v.01h-.01l-.09.03v-.02c-.01-.1-.02-.24-.18-.24h-.421v1.392c0,.2.08.21.21.22h.06v.1h-.02Z" transform="translate(-132.081 -152.813)"/><path d="M163.7,160.263h.04c.1,0,.2-.01.2-.15V158.73c0-.14-.1-.15-.2-.15h-.04v-.08c.1,0,.26.01.391.01s.29-.01.421-.01v.08h-.04c-.1,0-.2.01-.2.15v1.382c0,.14.1.15.2.15h.04v.08c-.13,0-.29-.01-.421-.01s-.29.01-.391.01Z" transform="translate(-149.448 -153.713)"/><path d="M164.411,160.233v-.06h-.02c-.09,0-.21-.02-.21-.16V158.63c0-.15.11-.16.21-.16h.02v-.06c-.12,0-.27.01-.4.01s-.28-.01-.381-.01v.06h.03c.09,0,.21.02.21.16v1.382c0,.15-.11.16-.21.16h-.03v.06c.1,0,.25-.01.381-.01s.27.01.4.01m.01.03c-.13,0-.29-.01-.421-.01s-.29.01-.391.01h-.01v-.1h.05c.1,0,.18-.01.18-.14V158.64c0-.13-.09-.14-.18-.14h-.05v-.1h.01c.1,0,.26.01.391.01s.29-.01.421-.01h.01v.1h-.05c-.1,0-.18.01-.18.14v1.382c0,.13.09.14.18.14h.05v.1Z" transform="translate(-149.358 -153.623)"/><path d="M173.522,159.813c.511,0,.6-.451.6-.841s-.21-.851-.651-.851c-.461,0-.6.411-.6.771.01.471.22.921.651.921m-.04-1.813a.928.928,0,0,1,1.012.911.97.97,0,0,1-1,1.012.937.937,0,0,1-.992-.951.975.975,0,0,1,.982-.971" transform="translate(-157.367 -153.263)"/><path d="M172.871,158.791c0-.361.14-.781.611-.781.451,0,.661.481.661.871s-.09.851-.611.851v-.02c.5,0,.591-.441.591-.831s-.21-.841-.641-.841c-.451,0-.591.4-.591.751,0,.471.22.911.631.911v.02c-.441.01-.651-.451-.651-.931m-.371.1a.975.975,0,0,1,.992-.991v.02a.949.949,0,0,0-.961.961.926.926,0,0,0,.981.941.96.96,0,0,0,.992-1,.912.912,0,0,0-1-.9v-.02a.933.933,0,0,1,1.022.921.981.981,0,0,1-1.012,1.022.937.937,0,0,1-1.012-.951" transform="translate(-157.367 -153.173)"/><path d="M194.913,159.732h0l.01-1c0-.22-.15-.25-.23-.25h-.06v-.08c.12,0,.25.01.371.01s.22-.01.33-.01v.08h-.05c-.11,0-.24.02-.24.341v1.2a1.185,1.185,0,0,0,.02.27h-.1l-1.362-1.522v1.092c0,.23.05.31.25.31h.05v.08c-.11,0-.23-.01-.341-.01s-.24.01-.361.01v-.08h.04c.18,0,.24-.12.24-.331V158.73a.237.237,0,0,0-.24-.24h-.03v-.08c.1,0,.2.01.3.01.08,0,.16-.01.23-.01Z" transform="translate(-175.994 -153.623)"/><path d="M194.723,159.722Zm.01.01Zm.05.541h.09a2.179,2.179,0,0,1-.01-.26v-1.2c0-.32.13-.351.25-.351h.03v-.06c-.1,0-.21.01-.31.01-.12,0-.24-.01-.361-.01v.06h.05a.233.233,0,0,1,.24.26v1l-.01.01-.01.01-1.182-1.332c-.08,0-.16.01-.24.01-.1,0-.2-.01-.29-.01v.06h.02a.247.247,0,0,1,.25.25v1.112c0,.21-.06.351-.25.351h-.03v.06c.11,0,.23-.01.351-.01s.22.01.331.01v-.06h-.03c-.21,0-.26-.09-.26-.32v-1.122Zm.1.03h-.11l-1.342-1.492v1.052c0,.23.04.29.24.3h.06v.1h-.01c-.11,0-.23-.01-.341-.01s-.24.01-.361.01H193v-.1h.05c.17,0,.22-.11.23-.32V158.73a.233.233,0,0,0-.23-.23H193v-.1h.01c.1,0,.2.01.3.01.08,0,.15-.01.24-.01l1.162,1.312v-.971c0-.21-.14-.24-.22-.24h-.07v-.1h.01c.12,0,.25.01.371.01s.22-.01.331-.01h.01v.1h-.04c-.11,0-.22.01-.22.32v1.2a2.438,2.438,0,0,0,.01.27v.01Z" transform="translate(-175.814 -153.623)"/><path d="M215.121,158.161h0l-.25.751h.491Zm-.391,1.172a.873.873,0,0,0-.06.21c0,.08.11.09.2.09h.03v.08c-.11-.01-.21-.01-.32-.01a2.53,2.53,0,0,0-.28.01v-.08h.02a.243.243,0,0,0,.23-.17l.421-1.212c.03-.1.08-.23.1-.331a1.853,1.853,0,0,0,.24-.11c.01,0,.01-.01.02-.01s.01,0,.02.01a.145.145,0,0,1,.02.07l.491,1.382a2.157,2.157,0,0,0,.1.27.175.175,0,0,0,.17.11h.02v.08c-.12-.01-.24-.01-.361-.01s-.26,0-.4.01v-.08h.03c.06,0,.16-.01.16-.08a.759.759,0,0,0-.05-.19l-.1-.31h-.6Z" transform="translate(-194.981 -153.083)"/><path d="M215.111,158.161Zm-.23.731h.461l-.23-.711Zm-.03.03.25-.771h.02v.01h0v-.01h.01l.25.771Zm.541.771c.13,0,.26-.01.391-.01s.24.01.351.01v-.06h0a.168.168,0,0,1-.18-.11c-.03-.08-.07-.18-.1-.27l-.491-1.382a.142.142,0,0,1-.02-.06h-.02a1.076,1.076,0,0,1-.24.11,2.074,2.074,0,0,1-.1.331l-.421,1.212a.255.255,0,0,1-.24.18h0v.06c.09,0,.18-.01.27-.01s.21.01.31.01v-.06h-.03c-.09,0-.21-.01-.21-.1a.872.872,0,0,1,.06-.21h0l.09-.28h.621l.11.31a.758.758,0,0,1,.05.19c0,.08-.11.09-.17.09h-.02v.05Zm.751.03c-.12,0-.24-.01-.361-.01s-.26.01-.4.01h-.01v-.1h.04c.06,0,.15-.01.15-.07a.882.882,0,0,0-.05-.19l-.1-.3h-.581l-.08.27a.975.975,0,0,0-.06.2c0,.06.1.08.19.08h.04v.1h-.01c-.11,0-.21-.01-.32-.01-.09,0-.19.01-.28.01h-.01v-.09h.03a.234.234,0,0,0,.22-.16l.421-1.212c.03-.1.08-.23.1-.331a1.852,1.852,0,0,0,.24-.11c.01,0,.01-.01.03-.01s.02,0,.03.02a.145.145,0,0,1,.02.07l.491,1.382a2.154,2.154,0,0,0,.1.27.154.154,0,0,0,.16.1h.03v.1Z" transform="translate(-194.981 -153.083)"/><path d="M234.181,159.992c0,.11.07.14.16.15a1.383,1.383,0,0,0,.351-.01.364.364,0,0,0,.25-.14.518.518,0,0,0,.08-.19h.08c-.03.15-.07.3-.1.451-.23,0-.471-.01-.7-.01s-.471.01-.7.01v-.08h.04c.1,0,.2-.01.2-.18V158.63c0-.14-.1-.15-.2-.15h-.04v-.08c.14,0,.28.01.421.01s.27-.01.4-.01v.08h-.07c-.1,0-.18,0-.18.14v1.372Z" transform="translate(-212.348 -153.623)"/><path d="M234.9,160.143c.03-.14.07-.28.09-.431h-.05a.772.772,0,0,1-.08.19.422.422,0,0,1-.26.15,1.409,1.409,0,0,1-.2.01.757.757,0,0,1-.15-.01c-.09-.01-.17-.05-.17-.16V158.53c0-.15.09-.15.19-.15h.05v-.06c-.13,0-.26.01-.391.01s-.27-.01-.411-.01v.06h.03c.09,0,.21.02.21.16V159.9c0,.17-.11.19-.21.19h-.03v.06c.23,0,.461-.01.691-.01s.461,0,.691,0m.01.03c-.23,0-.471-.01-.7-.01s-.461.01-.7.01h-.01v-.1h.05c.1,0,.19-.01.19-.17V158.54c0-.13-.09-.14-.19-.14h-.05v-.1h.01c.14,0,.28.01.421.01s.27-.01.4-.01h.01v.1h-.08c-.1,0-.17,0-.17.13v1.362c0,.1.07.13.15.14h.15a1.409,1.409,0,0,0,.2-.01.387.387,0,0,0,.25-.14.774.774,0,0,0,.08-.19v-.01h.1v.01c-.03.15-.07.3-.1.451l-.01.03Z" transform="translate(-212.258 -153.533)"/><path d="M245.64,157.98h.03c.04,0,.05-.03.05-.07a.056.056,0,0,0-.05-.06h-.03Zm-.1.14v-.01c.03,0,.04,0,.04-.02v-.21c0-.03,0-.04-.04-.04v-.01h.14c.05,0,.09.02.09.07a.085.085,0,0,1-.07.08l.05.06a.509.509,0,0,0,.06.07v.01h-.05c-.03,0-.05-.05-.1-.13h-.03v.09c0,.02.01.02.04.02v.01h-.13Zm.14.08a.231.231,0,0,0,.22-.23.221.221,0,1,0-.22.23m0-.5a.28.28,0,1,1-.28.28.274.274,0,0,1,.28-.28" transform="translate(-222.966 -152.993)"/></g><g transform="translate(8.142 1.803)"><path d="M83.2,24.977a4.477,4.477,0,1,1,4.477,4.477A4.475,4.475,0,0,1,83.2,24.977Z" transform="translate(-83.01 -20.25)" fill="#fff"/><path d="M85.977,27.284a4.653,4.653,0,0,1-4.677-4.6A4.579,4.579,0,0,1,85.977,18h1.2a4.746,4.746,0,0,1,4.857,4.677,4.827,4.827,0,0,1-4.857,4.6h-1.2Zm.01-8.9a4.246,4.246,0,1,0,4.246,4.246A4.249,4.249,0,0,0,85.987,18.381Zm-.961,6.77V20.123a2.69,2.69,0,0,0,0,5.028Zm3.656-2.514a2.693,2.693,0,0,0-1.733-2.514v5.028A2.7,2.7,0,0,0,88.681,22.637Z" transform="translate(-81.3 -18)" fill="#004a98"/></g></svg>