<svg xmlns="http://www.w3.org/2000/svg" width="32.1" height="19.98" viewBox="0 0 32.1 19.98"><g transform="translate(0 0)"><rect width="32.1" height="2.874" transform="translate(0 17.106)" fill="#f9b900"/><rect width="32.1" height="2.874" fill="#002c7d"/><path d="M18.992,17.173l-3.324,7.9H13.521l-1.628-6.3a.876.876,0,0,0-.485-.693A7.6,7.6,0,0,0,9.4,17.416l.035-.242h3.5a.958.958,0,0,1,.935.8l.831,4.571,2.112-5.367h2.182m8.449,5.3c0-2.078-2.874-2.216-2.874-3.151,0-.277.277-.589.866-.658a3.907,3.907,0,0,1,2.008.346l.346-1.662a5.5,5.5,0,0,0-1.9-.346c-2.008,0-3.428,1.073-3.463,2.6,0,1.143,1,1.766,1.8,2.147s1.073.623,1.073.97c0,.519-.623.762-1.212.762a4.721,4.721,0,0,1-2.112-.485l-.381,1.731a6.259,6.259,0,0,0,2.285.416c2.182.069,3.567-1,3.567-2.666m5.367,2.6h1.9l-1.662-7.9H31.32a.944.944,0,0,0-.866.589L27.372,25.1h2.147l.416-1.177h2.632Zm-2.285-2.8L31.6,19.285l.623,2.978ZM21.9,17.173l-1.7,7.9H18.161l1.7-7.9Z" transform="translate(-6.145 -11.113)" fill="#002c7d"/></g></svg>