<svg xmlns="http://www.w3.org/2000/svg" width="76.819" height="20.707" viewBox="0 0 76.819 20.707"><g transform="translate(0 0)"><path d="M8.534,13.1a.744.744,0,0,1-.356.081.779.779,0,0,1-.679-.4l-.049-.113L5.314,7.984a.368.368,0,0,1-.04-.162A.386.386,0,0,1,5.9,7.514L8.42,9.31a1.166,1.166,0,0,0,.639.194,1.153,1.153,0,0,0,.4-.073l11.85-5.274A12.491,12.491,0,0,0,11.729,0C5.25,0,0,4.376,0,9.779a9.211,9.211,0,0,0,4.052,7.393.767.767,0,0,1,.332.639.856.856,0,0,1-.04.251c-.194.736-.518,1.917-.526,1.974a1.109,1.109,0,0,0-.065.283.388.388,0,0,0,.388.388.442.442,0,0,0,.226-.073l2.572-1.48a1.21,1.21,0,0,1,.623-.178,1.246,1.246,0,0,1,.348.049,13.75,13.75,0,0,0,3.826.534c6.479,0,11.729-4.376,11.729-9.779a8.475,8.475,0,0,0-1.335-4.53l-13.508,7.8Z" fill="#18a83a"/><rect width="6.576" height="0.558" transform="translate(45.443 8.396)" fill="#020202"/><rect width="6.576" height="0.599" transform="translate(45.443 10.248)" fill="#020202"/><path d="M563.808,157.843h6.236V154.3H563.8v3.543Zm5.638-.558h-5.039V154.85h5.039Z" transform="translate(-518.195 -141.819)" fill="#020202"/><path d="M515.6,61.4a18.741,18.741,0,0,1-2.5,5.468h0l.332.566a22.206,22.206,0,0,0,1.149-1.917V72.49h.6V64.272a20.983,20.983,0,0,0,.979-2.548Z" transform="translate(-471.596 -56.433)" fill="#020202"/><path d="M557.688,62.377l.469-.275c-.089-.218-.485-1.027-.615-1.3l-.558.324q.291.558.558,1.116a.347.347,0,0,1,.048.138H553.7v.6h7.919v-.6Z" transform="translate(-508.913 -55.882)" fill="#020202"/><path d="M399.363,63.4h.55v2.969h1.165V64.282h.55v2.645H397.6V64.282h.558v2.087h1.205Z" transform="translate(-365.439 -58.272)" fill="#020202"/><rect width="3.567" height="0.558" transform="translate(32.347 9.852)" fill="#020202"/><path d="M395.153,145.064l-.922.793V143.6h-3.009v.882a2.779,2.779,0,0,1-.922,2.637l.324.558a3.4,3.4,0,0,0,1.205-2.961v-.558h1.844V145.5a1.307,1.307,0,0,1-.21.833l.348.6c.307-.251.849-.712,1.618-1.391Z" transform="translate(-358.729 -131.985)" fill="#020202"/><path d="M363.479,62a9.93,9.93,0,0,1-2.079,2.9l.34.59A11.939,11.939,0,0,0,364,62.307Z" transform="translate(-332.167 -56.985)" fill="#020202"/><path d="M361.66,99.5a12.206,12.206,0,0,1-2.16,3.591l.324.558c.364-.429.72-.874,1.052-1.327v5.185h.558V101.4a17.039,17.039,0,0,0,.777-1.585Z" transform="translate(-330.421 -91.452)" fill="#020202"/><path d="M450.005,64.434v-.558h-2.637a12.368,12.368,0,0,0,.582-2.176h-.582a14.513,14.513,0,0,1-1.723,4.586l.348.607c.065-.121.146-.291.259-.518s.218-.388.275-.51a12.357,12.357,0,0,0,.971,3.891,9.782,9.782,0,0,1-2,2.338l.332.582a9.667,9.667,0,0,0,1.941-2.313,11.914,11.914,0,0,0,1.836,2.354l.34-.59A9.579,9.579,0,0,1,448.1,69.8a13.33,13.33,0,0,0,1.254-5.371Zm-2.176,4.675a16.224,16.224,0,0,1-.882-4.125,4.1,4.1,0,0,1,.235-.558H448.8a13.383,13.383,0,0,1-.971,4.683" transform="translate(-409.465 -56.709)" fill="#020202"/><path d="M871.317,123.746a36.116,36.116,0,0,0-1.917-3.2l.5-.251c.688,1.011,1.537,2.362,1.941,3.114Z" transform="translate(-799.076 -110.569)"/><path d="M678.718,69.911l.162-.526a13.79,13.79,0,0,1-4.894-1.618,8.967,8.967,0,0,0,3.4-3.972l-.388-.259-.121.024h-3.179v-2.2h4.821v-.6h-4.821V58.7h-.59v2.063h-4.8v.6h4.8v2.2h-3.268v.59a9.267,9.267,0,0,0,3.066,3.6,16.109,16.109,0,0,1-4.9,1.674l.17.558a.062.062,0,0,0,.016.032,16.9,16.9,0,0,0,5.258-1.885,13.815,13.815,0,0,0,5.258,1.836.117.117,0,0,1,.016-.057m-8.194-5.767h5.986a8.256,8.256,0,0,1-3.066,3.284,8.563,8.563,0,0,1-2.92-3.284" transform="translate(-613.967 -53.952)"/><path d="M818.047,59.7a15.069,15.069,0,0,1-3.146,5.128l.251.639a.062.062,0,0,1,.016.032,12.227,12.227,0,0,0,1.48-1.836v7.248h.59v-8.17a19.062,19.062,0,0,0,1.375-2.863Z" transform="translate(-748.985 -54.871)"/><path d="M864.127,63.177V60.5h-.59v2.677H858.4v.6h5.136v6.948c0,.283-.1.364-.38.388-.226.008-.461.065-1.1.065V71.7a4.908,4.908,0,0,0,1.5-.105c.4-.1.574-.3.574-.89V63.776h1.658v-.6Z" transform="translate(-788.966 -55.606)"/></g></svg>