<svg xmlns="http://www.w3.org/2000/svg" xmlns:xlink="http://www.w3.org/1999/xlink" width="64" height="64" viewBox="0 0 64 64"><defs><style>.a{fill:none;}.b{clip-path:url(#a);}.c{fill:#1da1f2;}</style><clipPath id="a"><rect class="a" width="64" height="64"/></clipPath></defs><g class="b"><rect class="a" width="64" height="64"/><path class="c" d="M59,15.258A22.119,22.119,0,0,1,52.639,17a11.123,11.123,0,0,0,4.869-6.124,22.331,22.331,0,0,1-7.039,2.689,11.086,11.086,0,0,0-18.876,10.1A31.45,31.45,0,0,1,8.762,12.093a11.09,11.09,0,0,0,3.428,14.786,11.079,11.079,0,0,1-5.018-1.39v.138A11.089,11.089,0,0,0,16.058,36.49a11.221,11.221,0,0,1-2.919.388,10.632,10.632,0,0,1-2.085-.206A11.083,11.083,0,0,0,21.4,44.365,22.226,22.226,0,0,1,7.642,49.1,23.555,23.555,0,0,1,5,48.948a31.313,31.313,0,0,0,16.98,4.984c20.378,0,31.517-16.879,31.517-31.517l-.037-1.434A22.12,22.12,0,0,0,59,15.258Z" transform="translate(0 -0.068)"/></g></svg>