<svg xmlns="http://www.w3.org/2000/svg" width="64" height="64" viewBox="0 0 64 64"><defs><style>.a{fill:none;}</style></defs><rect class="a" width="64" height="64"/><path d="M103.929,216.548a2.993,2.993,0,0,1-1.4-.344L89,209.089,75.467,216.2a3,3,0,0,1-4.353-3.163L73.7,197.972,62.75,187.3a3,3,0,0,1,1.662-5.117l15.131-2.2,6.767-13.71a3,3,0,0,1,5.38,0l6.767,13.71,15.131,2.2a3,3,0,0,1,1.662,5.117L104.3,197.972l2.584,15.069a3,3,0,0,1-2.957,3.507ZM89,202.7a3,3,0,0,1,1.4.344l9.549,5.02-1.824-10.632a3,3,0,0,1,.863-2.656l7.725-7.53-10.676-1.552a3,3,0,0,1-2.259-1.641L89,174.379l-4.774,9.674a3,3,0,0,1-2.259,1.641l-10.676,1.552,7.725,7.53a3,3,0,0,1,.863,2.656l-1.824,10.632,9.549-5.02A3,3,0,0,1,89,202.7Z" transform="translate(-56.844 -158.601)"/></svg>