<?xml version="1.0" standalone="no"?>
<!DOCTYPE svg PUBLIC "-//W3C//DTD SVG 1.1//EN" "http://www.w3.org/Graphics/SVG/1.1/DTD/svg11.dtd" >
<svg xmlns="http://www.w3.org/2000/svg">
<metadata>Generated by IcoMoon</metadata>
<defs>
<font id="lc_icons" horiz-adv-x="1024">
<font-face units-per-em="1024" ascent="960" descent="-64" />
<missing-glyph horiz-adv-x="1024" />
<glyph unicode="&#x20;" horiz-adv-x="512" d="" />
<glyph unicode="&#xe900;" glyph-name="arrow-down" d="M277.829 414.395l260.215-260.215c18.745-18.745 18.745-49.137 0-67.882s-49.137-18.745-67.882 0l-260.215 260.215c-18.745 18.745-18.745 49.137 0 67.882s49.137 18.745 67.882 0zM814.251 346.507l-260.215-260.215c-18.745-18.745-49.137-18.745-67.882 0s-18.745 49.137 0 67.882l260.215 260.215c18.745 18.745 49.137 18.745 67.882 0s18.745-49.137 0-67.882zM559.856 784v-672c0-26.51-21.49-48-48-48s-48 21.49-48 48v672c0 26.51 21.49 48 48 48s48-21.49 48-48z" />
<glyph unicode="&#xe901;" glyph-name="arrow-left" d="M490.043 682.171l-260.215-260.215c-18.745-18.745-49.137-18.745-67.882 0s-18.745 49.137 0 67.882l260.215 260.215c18.745 18.745 49.137 18.745 67.882 0s18.745-49.137 0-67.882zM422.155 145.749l-260.215 260.215c-18.745 18.745-18.745 49.137 0 67.882s49.137 18.745 67.882 0l260.215-260.215c18.745-18.745 18.745-49.137 0-67.882s-49.137-18.745-67.882 0zM859.648 400.144h-672c-26.51 0-48 21.49-48 48s21.49 48 48 48h672c26.51 0 48-21.49 48-48s-21.49-48-48-48z" />
<glyph unicode="&#xe902;" glyph-name="arrow-right" d="M545.605 213.637l260.215 260.215c18.745 18.745 49.137 18.745 67.882 0s18.745-49.137 0-67.882l-260.215-260.215c-18.745-18.745-49.137-18.745-67.882 0s-18.745 49.137 0 67.882zM613.493 750.059l260.215-260.215c18.745-18.745 18.745-49.137 0-67.882s-49.137-18.745-67.882 0l-260.215 260.215c-18.745 18.745-18.745 49.137 0 67.882s49.137 18.745 67.882 0zM176 495.664h672c26.51 0 48-21.49 48-48s-21.49-48-48-48h-672c-26.51 0-48 21.49-48 48s21.49 48 48 48z" />
<glyph unicode="&#xe903;" glyph-name="arrow-up" d="M746.363 469.957l-260.215 260.215c-18.745 18.745-18.745 49.137 0 67.882s49.137 18.745 67.882 0l260.215-260.215c18.745-18.745 18.745-49.137 0-67.882s-49.137-18.745-67.882 0zM209.941 537.845l260.215 260.215c18.745 18.745 49.137 18.745 67.882 0s18.745-49.137 0-67.882l-260.215-260.215c-18.745-18.745-49.137-18.745-67.882 0s-18.745 49.137 0 67.882zM464.336 100.352v672c0 26.51 21.49 48 48 48s48-21.49 48-48v-672c0-26.51-21.49-48-48-48s-48 21.49-48 48z" />
<glyph unicode="&#xe904;" glyph-name="arrow2-down" d="M245.813 622.059l294.156-294.156c18.745-18.745 18.745-49.137 0-67.882s-49.137-18.745-67.882 0l-294.156 294.156c-18.745 18.745-18.745 49.137 0 67.882s49.137 18.745 67.882 0zM850.123 554.187l-294.156-294.156c-18.745-18.745-49.137-18.745-67.882 0s-18.745 49.137 0 67.882l294.156 294.156c18.745 18.745 49.137 18.745 67.882 0s18.745-49.137 0-67.882z" />
<glyph unicode="&#xe905;" glyph-name="arrow2-left" d="M699.979 714.187l-294.156-294.156c-18.745-18.745-49.137-18.745-67.882 0s-18.745 49.137 0 67.882l294.156 294.156c18.745 18.745 49.137 18.745 67.882 0s18.745-49.137 0-67.882zM632.107 109.877l-294.156 294.156c-18.745 18.745-18.745 49.137 0 67.882s49.137 18.745 67.882 0l294.156-294.156c18.745-18.745 18.745-49.137 0-67.882s-49.137-18.745-67.882 0z" />
<glyph unicode="&#xe906;" glyph-name="arrow2-right" d="M337.941 177.749l294.156 294.156c18.745 18.745 49.137 18.745 67.882 0s18.745-49.137 0-67.882l-294.156-294.156c-18.745-18.745-49.137-18.745-67.882 0s-18.745 49.137 0 67.882zM405.813 782.059l294.156-294.156c18.745-18.745 18.745-49.137 0-67.882s-49.137-18.745-67.882 0l-294.156 294.156c-18.745 18.745-18.745 49.137 0 67.882s49.137 18.745 67.882 0z" />
<glyph unicode="&#xe907;" glyph-name="arrow2-up" d="M782.251 260.021l-294.156 294.156c-18.745 18.745-18.745 49.137 0 67.882s49.137 18.745 67.882 0l294.156-294.156c18.745-18.745 18.745-49.137 0-67.882s-49.137-18.745-67.882 0zM177.941 327.893l294.156 294.156c18.745 18.745 49.137 18.745 67.882 0s18.745-49.137 0-67.882l-294.156-294.156c-18.745-18.745-49.137-18.745-67.882 0s-18.745 49.137 0 67.882z" />
<glyph unicode="&#xe908;" glyph-name="cart" d="M917.824 653.536c-8.864 11.28-22.505 18.46-37.823 18.464h-572.593l-20.288 105.088c-4.417 22.314-23.83 38.906-47.119 38.912h-144.001c-26.51 0-48-21.49-48-48s21.49-48 48-48v0h104.368l80.512-417.088c4.36-22.046 23.352-38.503 46.26-38.911l0.044-0.001 472.816-8c22.364 0.010 41.151 15.314 46.471 36.019l0.073 0.333 80 320c0.919 3.507 1.447 7.533 1.447 11.682 0 11.175-3.828 21.457-10.244 29.604l0.078-0.102zM762.624 352.64l-394.944 6.688-41.744 216.672h492.576zM432 144c0-44.183-35.817-80-80-80s-80 35.817-80 80c0 44.183 35.817 80 80 80s80-35.817 80-80zM848 144c0-44.183-35.817-80-80-80s-80 35.817-80 80c0 44.183 35.817 80 80 80s80-35.817 80-80z" />
<glyph unicode="&#xe909;" glyph-name="check" d="M213.829 504.235l226.274-226.274c18.745-18.745 18.745-49.137 0-67.882s-49.137-18.745-67.882 0l-226.274 226.274c-18.745 18.745-18.745 49.137 0 67.882s49.137 18.745 67.882 0zM382.869 272.133l429.921 429.921c18.745 18.745 49.137 18.745 67.882 0s18.745-49.137 0-67.882l-429.921-429.921c-18.745-18.745-49.137-18.745-67.882 0s-18.745 49.137 0 67.882z" />
<glyph unicode="&#xe90a;" glyph-name="close" d="M217.845 221.733l520.431 520.431c18.745 18.745 49.137 18.745 67.882 0s18.745-49.137 0-67.882l-520.431-520.431c-18.745-18.745-49.137-18.745-67.882 0s-18.745 49.137 0 67.882zM285.733 742.155l520.431-520.431c18.745-18.745 18.745-49.137 0-67.882s-49.137-18.745-67.882 0l-520.431 520.431c-18.745 18.745-18.745 49.137 0 67.882s49.137 18.745 67.882 0z" />
<glyph unicode="&#xe90b;" glyph-name="dollar" d="M221.616 330l10.96-4.112c2.91-23.625 14.758-44.037 31.999-58.081l0.161-0.127c18.535-15.767 40.073-28.737 63.527-37.876l1.529-0.524c22.030-8.861 47.835-16.018 74.607-20.271l2.081-0.273c20.366-3.578 44.026-5.804 68.14-6.156l0.34-0.004v205.472c-36.662 1.115-71.588 4.806-105.675 10.916l4.331-0.644c-35.125 5.772-66.653 16.526-95.539 31.641l1.731-0.825c-27.968 14.736-51.147 35.070-68.751 59.667l-0.401 0.589c-17.191 27.496-27.387 60.896-27.387 96.678 0 36.24 10.458 70.038 28.521 98.54l-0.446-0.754c19.022 27.555 42.749 50.405 70.23 67.878l0.986 0.586c27.142 17.429 58.558 31.5 92.039 40.545l2.361 0.543c29.281 8.402 62.954 13.382 97.742 13.695l0.178 0.001v84.896h82.16v-84.896c31.713-0.001 62.727-2.994 92.776-8.711l-3.080 0.487q44.496-8.208 80.8-17.792t60.944-17.808c8.089-3.216 17.741-6.058 27.702-8.042l1.098-0.182c0.64-0.039 1.387-0.061 2.14-0.061 5.148 0 10.055 1.034 14.524 2.905l-0.248-0.092c5.196 2.869 9.684 6.051 13.776 9.67l-0.080-0.070 12.336-8.224-90.4-167.072-10.944 4.112c-2.848 20.783-12.815 38.834-27.319 51.967l-0.073 0.065c-14.636 12.681-31.96 22.719-50.955 29.125l-1.077 0.315c-18.302 6.447-39.654 11.277-61.755 13.591l-1.237 0.105c-17.505 2.034-37.962 3.274-58.679 3.423l-0.217 0.001v-183.52q49.312-5.472 104.080-13.696c37.87-5.561 71.998-15.367 104.048-29.094l-2.704 1.030c30.833-13.034 56.754-32.365 77.126-56.528l0.25-0.304c19.38-25.433 31.049-57.653 31.049-92.597 0-3.077-0.090-6.133-0.269-9.165l0.020 0.418c0.043-1.494 0.067-3.251 0.067-5.015 0-37.536-11.001-72.503-29.954-101.853l0.447 0.739c-19.797-29.691-44.955-54.196-74.294-72.666l-1.018-0.598c-29.126-18.421-62.973-32.819-99.096-41.314l-2.248-0.446c-31.366-7.859-68.148-13.478-105.848-15.683l-1.656-0.077v-109.552h-82.16v109.552c-45.149 2.795-87.102 8.89-127.861 18.131l5.301-1.011c-31.259 7.114-57.58 15.116-83.116 24.719l4.364-1.439q-30.144 11.616-46.56 19.2c-7.544 4.031-16.384 6.725-25.766 7.519l-0.25 0.017c-0.743 0.076-1.606 0.119-2.479 0.119-10.406 0-19.375-6.151-23.47-15.015l-0.066-0.16-15.056 8.208zM474.96 714.848q-27.408-1.36-54.784-4.8c-18.536-2.205-35.425-7.031-51.061-14.134l1.077 0.438c-14.907-6.731-27.183-17.031-36.1-29.843l-0.188-0.285c-8.683-13.966-13.831-30.915-13.831-49.067 0-1.769 0.049-3.527 0.145-5.272l-0.011 0.242c-0.025-0.58-0.040-1.261-0.040-1.945 0-14.965 6.93-28.312 17.755-37.007l0.093-0.072c12.011-9.58 26.163-17.083 41.569-21.679l0.879-0.225c14.8-4.721 32.045-8.128 49.849-9.547l0.823-0.053q26-2.064 43.824-2.064zM557.12 202.688c20.19 0.153 39.855 1.893 59.022 5.101l-2.174-0.301c21.484 3.303 40.831 9.528 58.678 18.331l-1.174-0.523c17.576 8.469 32.397 20.004 44.356 34.052l0.156 0.188c11.124 13.796 17.857 31.539 17.857 50.855 0 1.14-0.023 2.274-0.070 3.403l0.005-0.162c0.057 0.958 0.090 2.078 0.090 3.206 0 17.307-7.697 32.817-19.856 43.292l-0.074 0.063c-13.314 10.875-29.085 19.328-46.304 24.402l-0.944 0.238c-16.903 5.206-36.699 9.085-57.093 10.881l-1.115 0.079q-30.816 2.736-51.36 4.112z" />
<glyph unicode="&#xe90c;" glyph-name="globe" d="M560 893.408v2.592h-96v-2.592c-225.902-25.055-400-214.907-400-445.421 0-247.424 200.576-448 448-448s448 200.576 448 448c0 230.514-174.098 420.366-397.978 445.239l-2.022 0.182zM825.376 608h-80.512c-10.003 51.646-25.297 97.498-45.699 140.455l1.507-3.527c52.911-34.101 95.25-80.357 123.774-134.971l0.93-1.957zM864 448c-0.022-28.388-3.403-55.975-9.768-82.4l0.488 2.4h-98.4c2.368 25.856 3.68 52.528 3.68 80 0 21.84-0.832 43.2-2.352 64h100.416c3.746-19.227 5.905-41.351 5.936-63.974v-0.026zM160 448c0.031 22.649 2.19 44.773 6.287 66.209l-0.351-2.209h100.416c-1.6-20.8-2.352-42.16-2.352-64 0-27.472 1.312-54.144 3.68-80h-98.4c-5.877 24.025-9.258 51.612-9.28 79.986v0.014zM360 448c0 22.032 1.12 43.312 2.912 64h101.088v-144h-99.536c-2.819 23.981-4.44 51.787-4.464 79.966v0.034zM645.712 608h-85.712v170.496c34.704-30.192 66.64-90.768 85.712-170.496zM464 778.496v-170.496h-85.712c19.072 79.728 51.008 140.304 85.712 170.496zM464 272v-154.496c-32.352 28.144-62.4 82.608-81.728 154.496zM560 117.504v154.496h81.728c-19.328-71.888-49.376-126.4-81.728-154.496zM560 368v144h101.088c1.792-20.688 2.912-41.968 2.912-64-0.024-28.212-1.645-56.018-4.777-83.365l0.313 3.365zM323.328 744.928c-18.895-39.43-34.189-85.282-43.591-133.247l-0.601-3.681h-80.512c29.453 56.571 71.792 102.826 123.31 136.085l1.394 0.843zM207.36 272h75.2c10.080-45.926 24.138-86.309 42.305-124.354l-1.473 3.426c-47.926 30.858-86.975 71.472-115.129 119.271l-0.903 1.657zM700.672 151.072c16.694 34.619 30.752 75.002 40.126 117.15l0.706 3.778h75.2c-29.057-49.457-68.106-90.070-114.636-120.085l-1.396-0.843z" />
<glyph unicode="&#xe90d;" glyph-name="heart" d="M512.96 74.416l-15.28 4.8c-78.37 27.151-146.33 62.567-207.94 106.337l2.516-1.697c-138.864 98.336-212.256 224.608-212.256 365.152 0 126.4 68.224 227.632 173.792 258.048 92.128 26.544 189.84-7.12 261.344-86.672 84.576 82.752 186.176 114.832 275.2 84.096 94.736-32.8 153.664-130.672 153.664-255.472 0-318.272-398.992-463.232-416-469.248zM316.8 719.856c-0.078 0-0.171 0-0.264 0-12.875 0-25.32-1.841-37.087-5.274l0.934 0.234c-64.384-18.608-104.384-82.096-104.384-165.808 0-233.36 267.648-347.728 335.056-372.8 67.36 27.76 336.944 152.688 336.944 372.8 0 83.856-33.312 145.44-89.12 164.8-64 22.112-144.080-15.584-209.136-98.4l-42.112-53.6-36.272 57.6c-46.688 74.336-105.488 100.448-154.56 100.448z" />
<glyph unicode="&#xe90e;" glyph-name="menu" d="M144 720h736c26.51 0 48-21.49 48-48s-21.49-48-48-48h-736c-26.51 0-48 21.49-48 48s21.49 48 48 48zM144 496h736c26.51 0 48-21.49 48-48s-21.49-48-48-48h-736c-26.51 0-48 21.49-48 48s21.49 48 48 48zM144 272h736c26.51 0 48-21.49 48-48s-21.49-48-48-48h-736c-26.51 0-48 21.49-48 48s21.49 48 48 48z" />
<glyph unicode="&#xe90f;" glyph-name="plus" d="M176 496h672c26.51 0 48-21.49 48-48s-21.49-48-48-48h-672c-26.51 0-48 21.49-48 48s21.49 48 48 48zM560 784v-672c0-26.51-21.49-48-48-48s-48 21.49-48 48v672c0 26.51 21.49 48 48 48s48-21.49 48-48z" />
<glyph unicode="&#xe910;" glyph-name="search" d="M901.264 149.264l-104 104c-11.498 11.427-27.344 18.49-44.84 18.49-2.54 0-5.045-0.149-7.507-0.438l0.299 0.029-46.944 46.944c43.476 55.214 69.731 125.763 69.731 202.445 0 181.556-147.18 328.736-328.736 328.736s-328.736-147.18-328.736-328.736c0-181.556 147.18-328.736 328.736-328.736 76.681 0 147.231 26.255 203.149 70.265l-0.704-0.534 46.944-46.944c-0.261-2.163-0.41-4.668-0.41-7.208 0-17.496 7.063-33.342 18.493-44.843l103.997-103.997c11.584-11.584 27.587-18.749 45.264-18.749 35.353 0 64.013 28.66 64.013 64.013 0 17.677-7.165 33.68-18.749 45.264v0zM440 288c-128.13 0-232 103.87-232 232s103.87 232 232 232c128.13 0 232-103.87 232-232v0c-0.155-128.068-103.932-231.845-231.985-232h-0.015z" />
<glyph unicode="&#xe911;" glyph-name="sns-facebook" d="M928 725.328c-2.685 75.482-63.19 135.987-138.422 138.665l-0.25 0.007h-554.656c-75.482-2.685-135.987-63.19-138.665-138.422l-0.007-0.25v-554.656c2.685-75.482 63.19-135.987 138.422-138.665l0.25-0.007h277.328v314.304h-101.696v138.672h101.696v54.032c0 93.184 69.968 177.088 156 177.088h112.096v-138.672h-112.096c-12.272 0-26.576-14.896-26.576-37.2v-55.248h138.672v-138.672h-138.672v-314.304h147.904c75.482 2.685 135.987 63.19 138.665 138.422l0.007 0.25z" />
<glyph unicode="&#xe912;" glyph-name="sns-twitter" d="M944 716.96c-29.638-13.496-64.018-23.31-100.073-27.703l-1.703-0.169c36.614 22.2 64.149 56.244 77.544 96.727l0.36 1.257c-32.423-19.531-70.149-34.453-110.326-42.633l-2.298-0.391c-32.431 34.437-78.328 55.881-129.233 55.881-97.962 0-177.376-79.414-177.376-177.376 0-14.224 1.674-28.056 4.836-41.312l-0.243 1.207c-147.638 7.613-277.503 77.76-364.584 184.254l-0.712 0.898c-15.070-25.533-23.973-56.26-23.973-89.066 0-61.232 31.016-115.22 78.194-147.11l0.627-0.4c-29.621 1.008-57.139 9.13-81.173 22.699l0.885-0.459v-2.208c0.040-85.48 60.522-156.822 141.024-173.607l1.152-0.201c-14.004-3.933-30.087-6.198-46.698-6.208h-0.006c-0.011 0-0.023 0-0.036 0-11.793 0-23.306 1.2-34.423 3.485l1.098-0.189c23.297-70.979 88.313-121.604 165.363-123.085l0.173-0.003c-59.804-47.231-136.278-75.761-219.417-75.761-0.25 0-0.5 0-0.749 0.001h0.038c-14.917 0.019-29.605 0.902-44.043 2.602l1.771-0.17c76.63-50.003 170.438-79.744 271.193-79.744 0.171 0 0.342 0 0.513 0h-0.026c326.048 0 504.272 270.064 504.272 504.272l-0.592 22.944c34.987 25.207 64.415 55.567 87.84 90.31l0.8 1.258z" />
<glyph unicode="&#xe913;" glyph-name="star" d="M753.36 32.848c-0.032 0-0.071 0-0.109 0-8.152 0-15.828 2.037-22.548 5.63l0.257-0.126-216.464 113.84-216.528-113.776c-6.477-3.475-14.17-5.516-22.34-5.516-26.51 0-48 21.49-48 48 0 2.87 0.252 5.681 0.735 8.413l-0.042-0.289 41.376 241.040-175.2 170.752c-8.947 8.727-14.496 20.902-14.496 34.372 0 24.071 17.718 44.003 40.824 47.467l0.264 0.033 242.096 35.2 108.272 219.36c8.017 15.977 24.27 26.75 43.040 26.75s35.023-10.773 42.914-26.474l0.126-0.276 108.272-219.36 242.096-35.2c23.37-3.496 41.088-23.429 41.088-47.5 0-13.471-5.549-25.645-14.486-34.363l-0.010-0.010-175.2-170.752 41.344-241.104c0.439-2.439 0.69-5.246 0.69-8.112 0-26.51-21.49-48-48-48-0.001 0-0.002 0-0.003 0v0zM514.496 254.416c0.024 0 0.053 0 0.082 0 8.161 0 15.847-2.037 22.576-5.63l-0.258 0.126 152.784-80.32-29.184 170.112c-0.44 2.441-0.692 5.251-0.692 8.12 0 13.473 5.551 25.649 14.49 34.367l0.010 0.010 123.6 120.48-170.816 24.832c-15.948 2.379-29.151 12.313-36.018 25.98l-0.126 0.276-76.448 154.784-76.384-154.784c-6.993-13.943-20.196-23.877-35.88-26.224l-0.264-0.032-170.816-24.832 123.6-120.48c8.949-8.727 14.5-20.904 14.5-34.376 0-2.869-0.252-5.678-0.734-8.409l0.042 0.289-29.184-170.112 152.784 80.32c6.471 3.467 14.157 5.504 22.318 5.504 0.006 0 0.013 0 0.019 0h-0.001z" />
<glyph unicode="&#xe914;" glyph-name="user" d="M515.568 485.344c-114.688 0-208 99.28-208 221.328s93.312 221.328 208 221.328 208-99.28 208-221.328-93.312-221.328-208-221.328zM515.568 832c-61.76 0-112-56.224-112-125.328s50.24-125.328 112-125.328 112 56.224 112 125.328-50.24 125.328-112 125.328zM717.008 367.232c51.046-38.403 90.273-89.97 112.914-149.697l0.766-2.303c-70.268-100.053-185.151-164.641-315.12-164.641s-244.852 64.588-314.305 163.417l-0.815 1.224c23.407 62.030 62.634 113.597 112.824 151.383l0.856 0.617c56.684-37.948 126.421-60.562 201.44-60.562s144.756 22.614 202.767 61.396l-1.327-0.835zM709.696 484.272c-49.361-50.375-118.098-81.602-194.128-81.602s-144.767 31.228-194.083 81.556l-0.045 0.046c-111.665-57.108-193.971-158.164-224.797-279.745l-0.643-2.991c83.588-148.318 240.072-246.842 419.568-246.842s335.981 98.525 418.324 244.444l1.244 2.398c-31.469 124.572-113.775 225.628-223.001 281.601l-2.439 1.135z" />
<glyph unicode="&#xe915;" glyph-name="heart-active" d="M512.96 74.416l-15.28 4.8c-78.37 27.151-146.33 62.567-207.94 106.337l2.516-1.697c-138.864 98.336-212.256 224.608-212.256 365.152 0 126.4 68.224 227.632 173.792 258.048 92.128 26.544 189.84-7.12 261.344-86.672 84.576 82.752 186.176 114.832 275.2 84.096 94.736-32.8 153.664-130.672 153.664-255.472 0-318.272-398.992-463.232-416-469.248z" />
</font>
</defs>
</svg>
